<?xml version="1.0" encoding="utf-8"?>
<!-- Generator: Adobe Illustrator 27.9.0, SVG Export Plug-In . SVG Version: 6.00 Build 0)  -->
<svg version="1.1" id="Layer_1" xmlns="http://www.w3.org/2000/svg" xmlns:xlink="http://www.w3.org/1999/xlink" x="0px" y="0px"
	 viewBox="0 0 887.9 506.8" style="enable-background:new 0 0 887.9 506.8;" xml:space="preserve">
<style type="text/css">
	.st0{clip-path:url(#SVGID_00000031899912865792693200000002973073188832397697_);}
	.st1{fill:none;stroke:#685752;stroke-width:4;stroke-miterlimit:10;}
	.st2{fill:none;}
	.st3{fill:none;stroke:#685752;stroke-width:3;stroke-miterlimit:10;}
	.st4{fill:#997C70;stroke:#685752;stroke-width:4;stroke-miterlimit:10;}
	.st5{fill:#997C70;}
</style>
<g id="Group_33">
	<g>
		<defs>
			
				<rect id="SVGID_1_" x="19.5" y="7.7" transform="matrix(0.9986 -5.233596e-02 5.233596e-02 0.9986 -19.8492 23.7709)" width="849" height="766.4"/>
		</defs>
		<clipPath id="SVGID_00000044875250257596989220000007135131036533216944_">
			<use xlink:href="#SVGID_1_"  style="overflow:visible;"/>
		</clipPath>
		<g style="clip-path:url(#SVGID_00000044875250257596989220000007135131036533216944_);">
			<g id="Group_32">
				<path id="Path_1069" class="st1" d="M123.8,243.8c108.2-68.4,218.5-132.3,331-191.6c6-3.8,12.8-6.2,19.9-7
					c7.5,0.3,14.9,2.4,21.5,6L821,197.7"/>
				<path id="Path_1070" class="st2" d="M804.4,453.8c-10,14.2-22.6,19.4-39.1,20.2c-214.6,10.7-429.9,3.2-644.3,21.4
					c-12.9,1.1-24,0.3-21.2-20c1.2-8.4-1.7-14.8-8.9-15.8c-7.6-1-11,5.6-11,13.6c0.1,13,3.5,28.1-16,24c-17.6-3.7-32-11.7-37.7-32.9
					c-0.4-2-0.4-4.1,0.1-6C45,383,27.1,305.4,34.9,229.4c1.4-13.4,3.6-20.8,16.4-20.6c35.5,0.3,70.9-3.8,106.5,0.3
					c13.9,1.6,21.7,4.3,10,20.9c-6,8.5-5.2,17.5,3.6,23c9.6,6,17.4-1.4,18.6-10c5.9-40.6,33.4-35.9,58.1-37.1
					c122.4-6.1,244.8-12.6,367.2-17.8c26.4-1.1,55.5-9.9,75.4,23.1c1.6,3.5,5.7,5,9.2,3.4c3-1.4,4.7-4.8,3.8-8
					c-2.1-19.4,8.2-19.5,19.2-20c38.1-1.9,76.3-3.1,114.4-5.5c12.7-0.8,18.1,3.4,16.5,18.5c-7.9,74.3,2.4,147.6,11.4,221
					c1.9,15.1,9.2,34.2-10.2,41.5c-17.6,6.7-36.4,14.1-51.9-7.2c2.6-5.1,5-10.2,7.8-15.2c3.1-5.5,4.3-10.8-0.8-15.6
					c-3-3.5-7.9-4.5-12.1-2.5c-5.3,2.2-8.8,7.4-8.8,13.2C789.3,446,792.9,454.1,804.4,453.8"/>
				<path id="Path_1071" class="st3" d="M804.4,453.8c-10,14.2-22.6,19.4-39.1,20.2c-214.6,10.7-429.9,3.2-644.3,21.4
					c-12.9,1.1-24,0.3-21.2-20c1.2-8.4-1.7-14.8-8.9-15.8c-7.6-1-11,5.6-11,13.6c0.1,13,3.5,28.1-16,24c-17.6-3.7-32-11.7-37.7-32.9
					c-0.4-2-0.4-4.1,0.1-6C45,383,27.1,305.4,34.9,229.4c1.4-13.4,3.6-20.8,16.4-20.6c35.5,0.3,70.9-3.8,106.5,0.3
					c13.9,1.6,21.7,4.3,10,20.9c-6,8.5-5.2,17.5,3.6,23c9.6,6,17.4-1.4,18.6-10c5.9-40.6,33.4-35.9,58.1-37.1
					c122.4-6.1,244.8-12.6,367.2-17.8c26.4-1.1,55.5-9.9,75.4,23.1c1.6,3.5,5.7,5,9.2,3.4c3-1.4,4.7-4.8,3.8-8
					c-2.1-19.4,8.2-19.5,19.2-20c38.1-1.9,76.3-3.1,114.4-5.5c12.7-0.8,18.1,3.4,16.5,18.5c-7.9,74.3,2.4,147.6,11.4,221
					c1.9,15.1,9.2,34.2-10.2,41.5c-17.6,6.7-36.4,14.1-51.9-7.2c2.6-5.1,5-10.2,7.8-15.2c3.1-5.5,4.3-10.8-0.8-15.6
					c-3-3.5-7.9-4.5-12.1-2.5c-5.3,2.2-8.8,7.4-8.8,13.2C789.4,446,792.9,454.1,804.4,453.8L804.4,453.8z"/>
				<path id="Path_1072" class="st4" d="M804.4,453.8c-10,14.2-22.6,19.4-39.1,20.2c-214.6,10.7-429.9,3.2-644.3,21.4
					c-12.9,1.1-24,0.3-21.2-20c1.2-8.4-1.7-14.8-8.9-15.8c-7.6-1-11,5.6-11,13.6c0.1,13,3.5,28.1-16,24c-17.6-3.7-32-11.7-37.7-32.9
					c-0.4-2-0.4-4.1,0.1-6C45,383,27.1,305.4,34.9,229.4c1.4-13.4,3.6-20.8,16.4-20.6c35.5,0.3,70.9-3.8,106.5,0.3
					c13.9,1.6,21.7,4.3,10,20.9c-6,8.5-5.2,17.5,3.6,23c9.6,6,17.4-1.4,18.6-10c5.9-40.6,33.4-35.9,58.1-37.1
					c122.4-6.1,244.8-12.6,367.2-17.8c26.4-1.1,55.5-9.9,75.4,23.1c1.6,3.5,5.7,5,9.2,3.4c3-1.4,4.7-4.8,3.8-8
					c-2.1-19.4,8.2-19.5,19.2-20c38.1-1.9,76.3-3.1,114.4-5.5c12.7-0.8,18.1,3.4,16.5,18.5c-7.9,74.3,2.4,147.6,11.4,221
					c1.9,15.1,9.2,34.2-10.2,41.5c-17.6,6.7-36.4,14.1-51.9-7.2c2.6-5.1,5-10.2,7.8-15.2c3.1-5.5,4.3-10.8-0.8-15.6
					c-3-3.5-7.9-4.5-12.1-2.5c-5.3,2.2-8.8,7.4-8.8,13.2C789.4,446,792.9,454.1,804.4,453.8L804.4,453.8z"/>
				<path id="Path_1075" class="st5" d="M471.6,28.3c1.7,8.9-4.2,17.5-13.1,19.2c-8.9,1.7-17.5-4.2-19.2-13.1
					c-0.3-1.4-0.3-2.9-0.2-4.4c-1.7-8.9,4.2-17.5,13.1-19.2c8.9-1.7,17.5,4.2,19.2,13.1C471.6,25.4,471.7,26.8,471.6,28.3"/>
				
					<ellipse id="Ellipse_1" transform="matrix(0.9986 -5.233596e-02 5.233596e-02 0.9986 -0.9021 23.8706)" class="st1" cx="455.3" cy="29.2" rx="16.3" ry="18.6"/>
				<path id="Path_1076" class="st5" d="M509.1,50.9c1.1,21.1-13,39.1-31.5,40s-34.4-15.4-35.5-36.5s13-39.1,31.5-40
					S508,29.8,509.1,50.9"/>
				<path id="Path_1077" class="st1" d="M509.1,50.9c1.1,21.1-13,39.1-31.5,40s-34.4-15.4-35.5-36.5s13-39.1,31.5-40
					S508,29.8,509.1,50.9z"/>
				<line id="Line_16" class="st1" x1="129.3" y1="459.1" x2="314.1" y2="449.4"/>
				<path id="Path_1078" class="st1" d="M361.5,449.3c16.9-2.9,33.9-4.6,51-5.2"/>
				<line id="Line_17" class="st1" x1="519.7" y1="458.9" x2="614.1" y2="454"/>
				<path id="Path_1079" class="st1" d="M58.8,386.1c-1.7-15.7-3.3-31.4-5-47"/>
				<path id="Path_1080" class="st1" d="M61.7,259.7c4.1-6.4,10-11.5,16.9-14.6"/>
				<path id="Path_1081" class="st1" d="M242.1,239.6l158.4-21.9"/>
				<path id="Path_1082" class="st1" d="M509.9,234.2l45.1-5"/>
				<line id="Line_18" class="st1" x1="770.2" y1="233.9" x2="778" y2="233.4"/>
				<line id="Line_19" class="st1" x1="822.5" y1="292" x2="825.7" y2="352.7"/>
			</g>
		</g>
	</g>
</g>
</svg>
